<svg xmlns="http://www.w3.org/2000/svg" version="1.1" xmlns:xlink="http://www.w3.org/1999/xlink" xmlns:svgjs="http://svgjs.dev/svgjs" width="1000" height="623" viewBox="0 0 1000 623"><g transform="matrix(1,0,0,1,-0.6060606060606233,0.2522267206477409)"><svg viewBox="0 0 396 247" data-background-color="#ffffff" preserveAspectRatio="xMidYMid meet" height="623" width="1000" xmlns="http://www.w3.org/2000/svg" xmlns:xlink="http://www.w3.org/1999/xlink"><g id="tight-bounds" transform="matrix(1,0,0,1,0.2400000000000091,-0.09999999999999432)"><svg viewBox="0 0 395.52 247.2" height="247.2" width="395.52"><g><svg></svg></g><g><svg viewBox="0 0 395.52 247.2" height="247.2" width="395.52"><g transform="matrix(1,0,0,1,118.97436363636363,37.08)"><svg viewBox="0 0 157.5712727272727 173.04" height="173.04" width="157.5712727272727"><g><svg viewBox="0 0 157.5712727272727 173.04" height="173.04" width="157.5712727272727"><g><svg viewBox="0 0 157.5712727272727 173.04" height="173.04" width="157.5712727272727"><g><svg viewBox="0 0 157.5712727272727 173.04" height="173.04" width="157.5712727272727"><g><svg viewBox="0 0 157.5712727272727 173.04" height="173.04" width="157.5712727272727"><g><svg viewBox="0 0 157.5712727272727 173.04" height="173.04" width="157.5712727272727"><g transform="matrix(1,0,0,1,0,0)"><svg width="157.5712727272727" viewBox="3.25 -33 30.049999237060547 33" height="173.04" data-palette-color="#ef425f"><path d="M15.5 0L3.25 0 3.25-0.8 7.25-2.8 7.25-30.2 3.25-32.2 3.25-33 16.15-33Q21.4-33 24.43-30.83 27.45-28.65 27.45-24.85L27.45-24.85Q27.45-22.05 25.55-19.83 23.65-17.6 20.5-16.45L20.5-16.45 30-2.6 33.3-0.8 33.3 0 26.1 0 16.4-15.15 11.75-15.15 11.75-2.85 15.5-0.8 15.5 0ZM15-30.25L15-30.25 11.75-30.25 11.75-17.9 15.3-17.9Q18.45-17.9 20.53-19.68 22.6-21.45 22.6-24.2L22.6-24.2Q22.6-27 20.55-28.63 18.5-30.25 15-30.25Z" opacity="1" transform="matrix(1,0,0,1,0,0)" fill="#ef425f" class="undefined-text-0" data-fill-palette-color="primary" id="text-0"></path></svg></g></svg></g></svg></g></svg></g><g></g></svg></g></svg></g></svg></g><g mask="url(#a679c16b-13d5-45d1-83c8-2289ca43615e)"><g transform="matrix(3.66912391806077, 0, 0, 3.66912391806077, 15.364578188689649, 1)"><svg xmlns="http://www.w3.org/2000/svg" xmlns:xlink="http://www.w3.org/1999/xlink" version="1.1" x="0" y="0" viewBox="-345.7650146484375 275.2789306640625 99.42178344726562 66.82794189453125" enable-background="new -346 256 100 100" xml:space="preserve" height="66.82794189453125" width="99.42178344726562" class="icon-none" data-fill-palette-color="accent" id="none"><g fill="#da0f30" data-fill-palette-color="accent"><path d="M-251.339 331.136c-1.075-0.089-10.585-1.174-13.146-12.066-1.193-5.07-0.778-11.961-0.771-12.072 0.029-0.447-0.054-5.186-0.681-7.358-2.921-10.141-18.188-15.871-36.045-12.331-3.322 0.658-6.707 1.383-9.986 2.229 0.362 3.394 0.476 9.926-3.161 14.244-3.077 3.656-9.528 4.764-10.254 4.879-0.113 0.016-0.226 0.025-0.337 0.025-1.037 0-1.95-0.755-2.117-1.811-0.186-1.17 0.614-2.271 1.784-2.454 1.539-0.249 5.903-1.341 7.642-3.406 2.163-2.569 2.434-6.594 2.297-9.446-0.092-1.936-0.047-16.29-0.047-16.29l-8.137 6.194c-1.875-0.712-3.939-1.112-6.114-1.112-2.109 0-4.118 0.373-5.947 1.046l-7.168-6.016v11.439c-1.411 2.03-2.238 4.402-2.238 6.952 0 5.992 4.494 11.062 10.695 12.788-0.211 2.04 0.017 4.297 0.793 6.817 1.057 3.43 3.927 6.252 7.952 8.349v15.042c0 2.928 2.374 5.302 5.303 5.302 2.927 0 5.302-2.374 5.302-5.302v-11.63c5.116 0.897 10.841 1.051 16.618 0.36l-8.898 7.167c-2.28 1.838-2.64 5.175-0.803 7.456 1.048 1.299 2.583 1.976 4.132 1.976 1.167 0 2.343-0.384 3.323-1.173l15.905-12.812c0.08-0.063 0.138-0.138 0.212-0.207v8.78c0 2.929 2.375 5.302 5.301 5.302 2.928 0 5.303-2.373 5.303-5.302V322.9c4.018 14.116 16.391 18.641 22.565 19.025 0.116 0.008 0.229 0.012 0.344 0.012 2.811 0 5.155-2.177 5.361-5.021C-246.146 333.958-248.382 331.379-251.339 331.136z" fill="#da0f30" data-fill-palette-color="accent"></path></g></svg></g></g></svg></g><defs><mask id="23569f14-7479-4740-8797-f5cfeac6322d"><rect width="640" height="400" fill="white"></rect><rect width="173.3284" height="254.74118208" fill="black" x="233.3358" y="72.62940896" id="transform-me" transform="matrix(1,0,0,1,-122.24000000000001,-76.4)"></rect></mask><mask id="ab163874-c56a-476c-a56c-af91297442ab"><rect width="640" height="400" fill="white"></rect><rect width="173.3284" height="254.74118208" fill="black" x="233.3358" y="72.62940896" id="transform-me" transform="matrix(1,0,0,1,-122.24000000000001,-76.4)"></rect></mask><mask id="21105618-ee06-4229-bbe8-351f040788dd"><rect width="640" height="400" fill="white"></rect><rect width="173.3284" height="254.74118208" fill="black" x="233.3358" y="72.62940896" id="transform-me" transform="matrix(1,0,0,1,-122.24000000000001,-76.4)"></rect></mask><mask id="fbdf5635-4a76-414d-bb6c-ef9fbef67247"><rect width="640" height="400" fill="white"></rect><rect width="173.3284" height="254.74118208" fill="black" x="233.3358" y="72.62940896" id="transform-me" transform="matrix(1,0,0,1,-122.24000000000001,-76.4)"></rect></mask><mask id="f19ae9c9-569c-45f8-a000-c5120ce5c9ba"><rect width="640" height="400" fill="white"></rect><rect width="173.3284" height="254.74118208" fill="black" x="233.3358" y="72.62940896" id="transform-me" transform="matrix(1,0,0,1,-122.24000000000001,-76.4)"></rect></mask><mask id="a679c16b-13d5-45d1-83c8-2289ca43615e"><rect width="640" height="400" fill="white"></rect><rect width="173.3284" height="254.74118208" fill="black" x="233.3358" y="72.62940896" id="transform-me" transform="matrix(1,0,0,1,-122.24000000000001,-76.4)"></rect></mask></defs></svg><rect width="395.52" height="247.2" fill="none" stroke="none" visibility="hidden"></rect></g></svg></g></svg>